<?xml version="1.0" standalone="no"?>
<!DOCTYPE svg PUBLIC "-//W3C//DTD SVG 20010904//EN"
 "http://www.w3.org/TR/2001/REC-SVG-20010904/DTD/svg10.dtd">
<svg version="1.0" xmlns="http://www.w3.org/2000/svg"
 width="155.000000pt" height="155.000000pt" viewBox="0 0 155.000000 155.000000"
 preserveAspectRatio="xMidYMid meet">
<metadata>
Created by potrace 1.14, written by Peter Selinger 2001-2017
</metadata>
<g transform="translate(0.000000,155.000000) scale(0.100000,-0.100000)"
fill="#000000" stroke="none">
<path d="M70 775 l0 -265 70 0 70 0 0 90 0 90 58 0 c98 0 94 -3 141 142 l42
131 -27 29 c-38 39 -79 48 -226 48 l-128 0 0 -265z m252 138 c18 -16 24 -68
10 -90 -10 -16 -57 -33 -93 -33 l-29 0 0 76 0 77 47 -7 c25 -3 55 -14 65 -23z"/>
<path d="M695 1028 c-34 -110 -108 -328 -111 -328 -2 0 -20 33 -40 73 l-37 72
-35 -105 -35 -104 33 -63 34 -63 71 0 71 0 49 150 c27 83 52 150 55 150 3 0
26 -66 51 -147 l45 -148 70 -3 71 -3 87 216 c48 119 95 238 106 265 l20 50
-69 0 -69 0 -73 -170 c-44 -103 -76 -166 -80 -158 -4 7 -29 84 -55 171 l-47
157 -54 0 c-34 0 -55 -5 -58 -12z"/>
</g>
</svg>
