<?xml version="1.0" standalone="no"?>
<!DOCTYPE svg PUBLIC "-//W3C//DTD SVG 20010904//EN"
 "http://www.w3.org/TR/2001/REC-SVG-20010904/DTD/svg10.dtd">
<svg version="1.0" xmlns="http://www.w3.org/2000/svg"
 width="1508.000000pt" height="1508.000000pt" viewBox="0 0 1508.000000 1508.000000"
 preserveAspectRatio="xMidYMid meet">
<metadata>
Created by potrace 1.14, written by Peter Selinger 2001-2017
</metadata>
<g transform="translate(0.000000,1508.000000) scale(0.100000,-0.100000)"
fill="#000000" stroke="none">
<path d="M762 14400 c-4 -3 -7 -1950 -7 -4327 l1 -4322 -41 -22 c-53 -30 -207
-140 -275 -198 -60 -51 -230 -222 -230 -232 0 -3 -9 -17 -21 -30 -23 -27 -87
-134 -112 -189 -58 -126 -82 -304 -57 -435 54 -285 259 -544 625 -788 39 -26
79 -54 90 -62 20 -16 20 -28 20 -1108 l1 -1092 2344 -3 2345 -2 14 -33 c53
-118 201 -271 378 -389 178 -120 521 -271 733 -323 8 -2 40 -11 70 -20 49 -14
141 -36 208 -50 88 -19 253 -48 342 -60 25 -3 56 -8 70 -10 14 -2 59 -7 100
-11 41 -3 89 -8 105 -10 196 -22 807 -22 920 0 11 2 58 7 105 11 47 3 92 8
100 10 8 2 36 7 62 10 61 7 119 15 138 20 8 2 33 7 55 10 23 3 52 8 65 11 14
3 38 8 54 10 158 29 493 129 651 195 116 48 298 141 381 194 82 53 205 155
263 219 80 90 146 196 129 208 -7 4 892 8 1999 8 l2011 0 0 2149 0 2150 85
123 c194 281 346 595 445 923 17 55 33 111 36 125 3 14 14 61 24 105 18 74 33
152 47 250 4 22 8 51 11 65 2 14 6 54 9 90 3 36 8 83 10 105 5 56 6 402 0 445
-2 19 -6 67 -10 105 -14 174 -49 371 -99 555 -42 153 -75 251 -139 406 -95
232 -226 469 -370 667 l-49 67 0 2243 0 2242 -6815 0 c-3748 0 -6818 -2 -6821
-5z m-6 -9620 c0 -224 -3 -330 -10 -330 -6 0 -25 22 -43 48 -122 184 -130 336
-27 508 28 47 71 104 79 104 0 0 1 -148 1 -330z m9285 -3229 c-96 -121 -320
-255 -581 -349 -143 -51 -290 -94 -405 -118 -11 -2 -31 -7 -45 -9 -50 -11
-296 -54 -335 -59 -22 -3 -65 -8 -95 -12 -30 -3 -66 -8 -80 -9 -14 -2 -70 -6
-125 -10 -55 -4 -120 -8 -145 -11 -69 -5 -535 -5 -620 1 -244 17 -399 33 -530
55 -30 5 -71 12 -90 15 -61 10 -173 34 -261 55 -46 12 -94 23 -106 26 -91 19
-349 116 -474 179 -150 75 -327 206 -360 266 -10 19 31 19 2136 19 l2147 0
-31 -39z"/>
</g>
</svg>
